<svg width="69" height="45" viewBox="0 0 69 45" fill="none" xmlns="http://www.w3.org/2000/svg">
<path d="M54.244 40.2384C54.1168 40.236 53.9943 40.2238 53.8742 40.2005C53.6195 41.269 52.6525 42.0819 51.5143 42.0844H5.34657C4.01974 42.0819 2.91943 40.9827 2.91694 39.6546V8.77249H53.944V10.3112C54.0482 10.294 54.1533 10.2812 54.2623 10.2812H56.8573V5.34657C56.8548 2.396 54.4644 0.00676838 51.5143 0H5.34657C2.39555 0.00654276 0.00496348 2.396 0 5.34657V39.6548C0.00496348 42.6033 2.39555 44.9953 5.34657 45H51.5146C54.2648 44.995 56.5035 42.9093 56.7986 40.2362L54.2539 40.2387H54.244V40.2384ZM50.9465 3.42593C51.6183 3.42593 52.1621 3.96988 52.1621 4.64198C52.1621 5.3116 51.6186 5.85622 50.9465 5.85622C50.2755 5.85622 49.7322 5.3116 49.7322 4.64198C49.7322 3.96988 50.2755 3.42593 50.9465 3.42593ZM41.3992 3.49993H47.3725C48.0065 3.49993 48.5168 4.01026 48.5168 4.64198C48.5168 5.27234 48.0063 5.78403 47.3725 5.78403H41.3992C40.7675 5.78403 40.256 5.27234 40.256 4.64198C40.2558 4.01026 40.7675 3.49993 41.3992 3.49993Z" fill="#20A881"/>
<path d="M57.3283 19.3114C56.7981 19.1627 56.2388 19.0774 55.661 19.0774C55.2998 19.0774 54.951 19.1153 54.6083 19.1742C53.3219 19.3951 52.1713 20.0047 51.2887 20.8877C50.1676 22.0065 49.4795 23.552 49.4795 25.2587C49.4795 26.9675 50.1676 28.5123 51.2887 29.6297C52.0905 30.4316 53.11 31.0069 54.251 31.2736C54.7051 31.3789 55.1739 31.4401 55.661 31.4401C56.1824 31.4401 56.6894 31.3679 57.174 31.2454C58.273 30.9688 59.2548 30.4056 60.0307 29.6297C61.1509 28.5123 61.8422 26.9675 61.8422 25.2587C61.8422 23.552 61.1509 22.0065 60.0307 20.8877C59.2927 20.1479 58.3639 19.6019 57.3283 19.3114ZM57.3283 26.8466C56.9071 27.2883 56.3174 27.5663 55.661 27.5663C55.2793 27.5663 54.9228 27.4648 54.6083 27.3007C53.8665 26.9163 53.3548 26.1501 53.3548 25.259C53.3548 24.3655 53.8665 23.6009 54.6083 23.2167C54.9231 23.0531 55.2793 22.9523 55.661 22.9523C56.3171 22.9523 56.9069 23.2296 57.3283 23.6702C57.725 24.084 57.9697 24.641 57.9697 25.259C57.9697 25.8746 57.725 26.4342 57.3283 26.8466Z" fill="#20A881"/>
<path d="M68.5723 23.4551L65.779 23.1228C65.5146 21.8521 65.0117 20.6679 64.3225 19.6165L66.0655 17.4046C66.1905 17.2499 66.1781 17.0051 66.0337 16.8636L64.0567 14.8843C63.9161 14.7449 63.6725 14.7289 63.5121 14.8532L61.3026 16.5963C60.2513 15.9095 59.0691 15.4071 57.7971 15.1415L57.4656 12.3473C57.4557 12.2476 57.4045 12.1576 57.3287 12.0915C57.2565 12.0278 57.1608 11.9863 57.0593 11.9863H54.6089H54.2626C54.063 11.9863 53.8809 12.1479 53.8549 12.3475L53.5269 15.142C52.2538 15.4075 51.0702 15.91 50.02 16.5967L47.8069 14.8536C47.6526 14.7293 47.409 14.7453 47.2648 14.8848L45.2891 16.8641C45.1458 17.0055 45.1301 17.2503 45.2573 17.4062L46.9979 19.6168C46.3125 20.6681 45.8082 21.8524 45.5438 23.123L42.7505 23.4553C42.5497 23.4781 42.3882 23.6609 42.3882 23.8599V26.6568C42.3882 26.8576 42.55 27.041 42.7505 27.0654L45.5438 27.3934C45.8082 28.6665 46.3125 29.849 46.9979 30.9039L45.8644 32.3436L45.2575 33.1122C45.1303 33.2713 45.1461 33.5136 45.2893 33.653L46.6994 35.0656L46.7263 35.0951L47.265 35.6312C47.4069 35.7731 47.6531 35.7878 47.8097 35.663L48.533 35.0951L48.5661 35.0656L50.0202 33.9199C50.751 34.3987 51.5481 34.7768 52.3925 35.0608C52.4232 35.0708 52.4514 35.0852 52.4819 35.0951C52.8221 35.2052 53.1698 35.302 53.5271 35.3765L53.8552 38.1698C53.8809 38.3695 54.0632 38.5299 54.2628 38.5321L57.0595 38.5296C57.2579 38.5321 57.4451 38.3692 57.4661 38.1696L57.7977 35.3763C58.1515 35.3018 58.4992 35.205 58.8419 35.0949C59.7184 34.8109 60.5484 34.4154 61.3033 33.9197L62.7894 35.0924L63.5127 35.6626C63.6731 35.7876 63.9168 35.7727 64.0574 35.6307L64.5973 35.0922L66.0344 33.6526C66.1788 33.5132 66.191 33.2708 66.0662 33.1118L64.3231 30.9035C65.0124 29.8485 65.5153 28.6661 65.7797 27.393L68.573 27.0649C68.7688 27.0406 68.9376 26.8569 68.9376 26.6563V23.8594C68.9369 23.6609 68.7682 23.4779 68.5723 23.4551ZM56.5952 32.6396C56.2879 32.6788 55.9771 32.7057 55.6612 32.7057C54.7335 32.7057 53.852 32.527 53.0344 32.2186C50.2201 31.1562 48.2167 28.4439 48.2167 25.2587C48.2167 21.5051 50.9976 18.4097 54.6085 17.8967C54.9523 17.8466 55.3013 17.8134 55.6612 17.8134C56.234 17.8134 56.7922 17.885 57.3285 18.0086C60.6344 18.7669 63.1057 21.7222 63.1057 25.2584C63.106 29.0508 60.2662 32.1793 56.5952 32.6396Z" fill="#20A881"/>
<path d="M15.7144 20.1503L12.2725 30.7473H15.4046L15.9396 28.7693H19.368L19.8871 30.7473H23.0057L19.5209 20.1503H15.7144ZM16.532 26.4288C16.9702 24.774 17.2517 23.6651 17.379 23.1026C17.5062 22.5395 17.592 22.135 17.6359 21.8909C17.6838 22.1553 17.7839 22.5923 17.9347 23.203C18.0865 23.8144 18.2162 24.3137 18.3214 24.6982L18.7769 26.4288H16.532Z" fill="#20A881"/>
<path d="M28.5397 20.1936H24.8848V30.7471H27.7367V27.2453H28.5397C29.8176 27.2453 30.8053 26.9234 31.4993 26.282C32.1957 25.6392 32.5448 24.7298 32.5448 23.55C32.5448 22.477 32.2093 21.6497 31.541 21.067C30.8727 20.4851 29.8715 20.1936 28.5397 20.1936ZM29.2765 24.5612C29.0268 24.8008 28.6841 24.9211 28.2568 24.9211H27.7365V22.4962H28.4734C29.2616 22.4962 29.6569 22.8531 29.6569 23.5647C29.6571 23.9884 29.5299 24.3212 29.2765 24.5612Z" fill="#20A881"/>
<path d="M37.83 20.1936H34.9658V30.7471H37.83V20.1936Z" fill="#20A881"/>
</svg>
