<svg width="73" height="47" viewBox="0 0 73 47" fill="none" xmlns="http://www.w3.org/2000/svg">
<g clip-path="url(#clip0_1_720)">
<path d="M68.9118 13.1461H59.2496L57.6275 3.95522C57.2546 1.82066 55.1961 0.395162 53.0762 0.763191L3.59482 9.76271C1.46271 10.1381 0.0323076 12.1819 0.41015 14.3164L4.81177 39.2737C4.99333 40.3066 5.565 41.2095 6.42373 41.8131C7.09354 42.2817 7.87131 42.5271 8.67116 42.5271C8.90179 42.5271 9.13242 42.5074 9.36305 42.4657L19.0728 40.4802V42.3676C19.0728 44.534 20.8345 46.2957 23.0009 46.2957H68.9118C71.0783 46.2957 72.8422 44.534 72.8422 42.3676V17.0742C72.8422 14.9077 71.0783 13.1461 68.9118 13.1461ZM53.9178 4.60786L54.638 8.69052L29.3641 13.1461H23.0009C21.6667 13.1461 20.4898 13.8173 19.7795 14.8369L4.83952 17.7437L4.8314 17.6974L4.24991 13.4724L53.9178 4.60786ZM8.52149 38.621L5.98747 24.2526L19.0728 21.6721V36.5878L8.52149 38.621ZM69.0737 42.3676C69.0737 42.4559 69.0001 42.5271 68.9118 42.5271L22.8415 42.3676V21.1642L23.0009 16.9147L69.0737 17.0742V42.3676Z" fill="#20A881"/>
<path d="M28.732 33.2526H31.8357C33.7029 33.2526 35.2216 31.7339 35.2216 29.8668V26.763C35.2216 24.8984 33.7029 23.3796 31.8357 23.3796H28.732C26.8674 23.3796 25.3486 24.8984 25.3486 26.763V29.8668C25.3486 31.7339 26.8674 33.2526 28.732 33.2526ZM27.861 26.763C27.861 26.2822 28.2511 25.892 28.732 25.892H31.8357C32.3166 25.892 32.7092 26.2822 32.7092 26.763V29.8668C32.7092 30.3476 32.3166 30.7402 31.8357 30.7402H28.732C28.2511 30.7402 27.861 30.3476 27.861 29.8668V26.763Z" fill="#20A881"/>
<path d="M53.2381 34.8035C52.7474 35.2942 52.7474 36.0891 53.2381 36.5798C53.4835 36.8252 53.8049 36.9478 54.1263 36.9478C54.4477 36.9478 54.7691 36.8252 55.0145 36.5798C58.7978 32.7989 58.7978 26.643 55.0145 22.8622C54.5238 22.3715 53.7289 22.3715 53.2381 22.8622C52.7474 23.3529 52.7474 24.1478 53.2381 24.6385C56.0401 27.4404 56.0401 32.0015 53.2381 34.8035Z" fill="#20A881"/>
<path d="M50.2518 33.3117C49.7611 33.8024 49.7611 34.5973 50.2518 35.088C50.4972 35.3334 50.8186 35.4561 51.14 35.4561C51.4614 35.4561 51.7828 35.3334 52.0282 35.088C54.9871 32.1291 54.9871 27.3128 52.0282 24.3539C51.5375 23.8632 50.7425 23.8632 50.2518 24.3539C49.7611 24.8446 49.7611 25.6395 50.2518 26.1302C52.2318 28.1102 52.2318 31.3317 50.2518 33.3117Z" fill="#20A881"/>
<path d="M47.266 33.5962C47.5113 33.8416 47.8327 33.9643 48.1542 33.9643C48.4756 33.9643 48.797 33.8416 49.0423 33.5962C51.1769 31.4592 51.1769 27.9826 49.0423 25.848C48.5516 25.3573 47.7567 25.3573 47.266 25.848C46.7753 26.3387 46.7753 27.1337 47.266 27.6244C48.4216 28.78 48.4216 30.6618 47.266 31.8199C46.7753 32.3106 46.7753 33.108 47.266 33.5962Z" fill="#20A881"/>
<path d="M58.9474 29.722C58.9474 32.2025 57.9807 34.5383 56.2215 36.2975C55.7308 36.7882 55.7308 37.5831 56.2215 38.0738C56.4669 38.3192 56.7883 38.4418 57.1097 38.4418C57.4311 38.4418 57.7525 38.3192 57.9979 38.0738C60.2306 35.8411 61.4598 32.8748 61.4598 29.722C61.4598 26.5668 60.2306 23.6029 57.9979 21.3702C57.5072 20.8795 56.7122 20.8795 56.2215 21.3702C55.7308 21.8609 55.7308 22.6559 56.2215 23.1466C57.9807 24.9033 58.9474 27.2391 58.9474 29.722Z" fill="#20A881"/>
<path d="M26.6048 40.1765H32.1572C32.8515 40.1765 33.4134 39.6146 33.4134 38.9203C33.4134 38.2259 32.8515 37.6641 32.1572 37.6641H26.6048C25.9105 37.6641 25.3486 38.2259 25.3486 38.9203C25.3486 39.6146 25.9105 40.1765 26.6048 40.1765Z" fill="#20A881"/>
<path d="M36.1493 40.1765H43.5859C44.2802 40.1765 44.8421 39.6146 44.8421 38.9203C44.8421 38.2259 44.2802 37.6641 43.5859 37.6641H36.1493C35.4549 37.6641 34.8931 38.2259 34.8931 38.9203C34.8931 39.6146 35.4549 40.1765 36.1493 40.1765Z" fill="#20A881"/>
</g>
<defs>
<clipPath id="clip0_1_720">
<rect width="73" height="47" fill="white"/>
</clipPath>
</defs>
</svg>
