<svg width="53" height="74" viewBox="0 0 53 74" fill="none" xmlns="http://www.w3.org/2000/svg">
<path fill-rule="evenodd" clip-rule="evenodd" d="M34.3784 0H5.60819C2.57667 0 0.119141 2.46211 0.119141 5.50157V68.4984C0.119141 71.5369 2.56094 74 5.59356 74H46.7188C49.7422 74 52.1932 71.5382 52.1932 68.5437V20.5556V19.1852L35.7488 0H34.3784ZM33.008 2.74074H5.5885C4.08153 2.74074 2.85988 3.9885 2.85988 5.46903V68.531C2.85988 70.0378 4.10612 71.2593 5.60051 71.2593H46.7118C48.2254 71.2593 49.4525 70.0398 49.4525 68.5366V21.9259H38.4838C35.4596 21.9259 33.008 19.4961 33.008 16.4282V2.74074ZM35.7488 4.11111V16.4204C35.7488 17.9473 36.9839 19.1852 38.4806 19.1852H48.6301L35.7488 4.11111ZM22.0451 30.1481V32.8889H43.971V30.1481H22.0451ZM8.34136 27.4074V35.6296H16.5636V27.4074H8.34136ZM11.0821 30.1481V32.8889H13.8228V30.1481H11.0821ZM8.34136 41.1111V49.3333H16.5636V41.1111H8.34136ZM11.0821 43.8519V46.5926H13.8228V43.8519H11.0821ZM22.0451 43.8519V46.5926H43.971V43.8519H22.0451ZM8.34136 54.8148V63.037H16.5636V54.8148H8.34136ZM11.0821 57.5556V60.2963H13.8228V57.5556H11.0821ZM22.0451 57.5556V60.2963H43.971V57.5556H22.0451Z" fill="#20A881"/>
</svg>
