<svg width="29" height="47" viewBox="0 0 29 47" fill="none" xmlns="http://www.w3.org/2000/svg">
<path d="M22 21.8106C22 22.7509 21.8791 23.6586 21.649 24.5249C21.4543 25.4445 20.8968 27.056 19.3304 29.309C16.9263 32.7655 11.9883 38.883 11.124 46.8869C11.1093 47.0377 10.8938 47.0377 10.8761 46.8869C10.0118 38.883 5.07383 32.7655 2.6697 29.309C1.10038 27.056 0.545849 25.4445 0.351159 24.5249C0.121071 23.6586 0 22.7479 0 21.8106C0 20.3707 0.289154 18.9958 0.808328 17.7451V17.7422C3.11806 10.7849 11 11.0007 11 11.0007C11 11.0007 18.8821 10.7849 21.1918 17.7422V17.7451C21.711 18.9958 22 20.3678 22 21.8106Z" fill="white"/>
<path d="M29 14.1139C29 15.3414 28.8406 16.5265 28.5373 17.6575C28.2807 18.8581 27.5458 20.962 25.481 23.9034C22.312 28.416 15.8028 36.4028 14.6635 46.8523C14.644 47.0492 14.36 47.0492 14.3367 46.8523C13.1974 36.4028 6.68823 28.416 3.51915 23.9034C1.4505 20.962 0.719528 18.8581 0.462891 17.6575C0.159593 16.5265 0 15.3376 0 14.1139C0 12.234 0.381158 10.439 1.06552 8.80612V8.80225C4.11017 -0.280815 14.5 0.000961666 14.5 0.000961666C14.5 0.000961666 24.89 -0.280815 27.9347 8.80225V8.80612C28.619 10.439 29 12.2301 29 14.1139Z" fill="#FFCF57"/>
</svg>
