<svg width="56" height="71" viewBox="0 0 56 71" fill="none" xmlns="http://www.w3.org/2000/svg">
<path d="M19.8819 58.3515L11.6792 66.5542L14.6093 69.4843L22.812 61.2816L19.8819 58.3515Z" fill="#FFCF57"/>
<path d="M32.1875 48.3906V43.7031H34.5312V50.7344H25.1562V48.3906H32.1875Z" fill="#FFCF57"/>
<path d="M2.89062 0.34375V2.6875" stroke="#20A881" stroke-linejoin="round"/>
<path d="M27.5 39.0156C32.6777 39.0156 36.875 34.8183 36.875 29.6406C36.875 24.463 32.6777 20.2656 27.5 20.2656C22.3223 20.2656 18.125 24.463 18.125 29.6406C18.125 34.8183 22.3223 39.0156 27.5 39.0156Z" fill="#20A881"/>
<path d="M48.5938 24.9531C52.477 24.9531 55.625 21.8051 55.625 17.9219C55.625 14.0386 52.477 10.8906 48.5938 10.8906C44.7105 10.8906 41.5625 14.0386 41.5625 17.9219C41.5625 21.8051 44.7105 24.9531 48.5938 24.9531Z" fill="#20A881"/>
<path d="M27.5 8.54688V16.75" stroke="#20A881" stroke-linejoin="round"/>
<path d="M22.8125 6.20312V14.4062" stroke="#20A881" stroke-linejoin="round"/>
<path d="M32.1875 6.20312V14.4062" stroke="#20A881" stroke-linejoin="round"/>
<path d="M12.2656 0.34375V7.375" stroke="#20A881" stroke-linejoin="round"/>
<path d="M48.5938 1.51562V7.375" stroke="#20A881" stroke-linejoin="round"/>
<path d="M7.57812 17.9219C10.167 17.9219 12.2656 15.8232 12.2656 13.2344C12.2656 10.6455 10.167 8.54688 7.57812 8.54688C4.98929 8.54688 2.89062 10.6455 2.89062 13.2344C2.89062 15.8232 4.98929 17.9219 7.57812 17.9219Z" fill="#20A881"/>
<path d="M55.1565 36.9061L50.469 33.3905C50.2433 33.2213 49.9642 33.1392 49.6828 33.1592C49.4015 33.1792 49.1368 33.3001 48.9373 33.4995L39.9057 42.5311H18.1252C17.8145 42.5312 17.5164 42.6547 17.2967 42.8745L11.6799 48.4913L10.7506 47.562C10.5309 47.3423 10.2329 47.2189 9.92211 47.2189C9.61137 47.2189 9.31336 47.3423 9.0936 47.562L0.890473 55.7651C0.67078 55.9849 0.547363 56.2829 0.547363 56.5936C0.547363 56.9044 0.67078 57.2024 0.890473 57.4222L13.7811 70.3128C14.0009 70.5325 14.2989 70.6559 14.6096 70.6559C14.9204 70.6559 15.2184 70.5325 15.4381 70.3128L23.6413 62.1097C23.8609 61.8899 23.9844 61.5919 23.9844 61.2811C23.9844 60.9704 23.8609 60.6724 23.6413 60.4526L22.712 59.5233L25.6416 56.5936H41.5627C41.7468 56.5938 41.9284 56.5507 42.0927 56.4676C42.257 56.3845 42.3994 56.2639 42.5084 56.1155L55.3991 38.5374C55.5817 38.2884 55.6587 37.9773 55.6133 37.6719C55.5679 37.3664 55.4037 37.0912 55.1565 36.9061V36.9061ZM14.6096 67.8272L3.37602 56.5936L9.92211 50.0476L21.1557 61.2811L14.6096 67.8272ZM40.9686 54.2499H25.1565C24.8457 54.25 24.5477 54.3735 24.328 54.5933L21.0549 57.8663L13.337 50.1483L18.6104 44.8749H33.3596V49.5624H25.1565V51.9061H34.5315C34.8423 51.9061 35.1404 51.7827 35.3601 51.5629C35.5799 51.3431 35.7034 51.0451 35.7034 50.7343V44.8749H40.3909C40.7016 44.8748 40.9997 44.7513 41.2194 44.5315L49.876 35.8749L52.8221 38.0851L40.9686 54.2499Z" fill="#20A881"/>
</svg>
