<svg width="76" height="74" viewBox="0 0 76 74" fill="none" xmlns="http://www.w3.org/2000/svg">
<path d="M58.4222 37.6755L58.5372 37.7409C59.3312 38.1929 60.3196 38.1076 60.9723 37.4609L60.9724 37.4609L69.9269 28.5924C69.927 28.5922 69.9272 28.5921 69.9274 28.5919C69.9339 28.5852 69.9466 28.5699 69.9759 28.5197C69.9832 28.507 69.9906 28.494 69.9997 28.478L69.9998 28.4779C70.0084 28.4628 70.0186 28.4448 70.0293 28.4265C70.0509 28.3897 70.0783 28.3446 70.112 28.2977L70.1442 28.2529L70.1853 28.2161C70.2974 28.1161 70.4159 28.028 70.5138 27.9552C70.5266 27.9457 70.539 27.9364 70.5511 27.9275C70.6625 27.8443 70.7492 27.7767 70.825 27.7019C77.0575 21.5277 77.0572 11.5194 70.8245 5.34799L70.8244 5.34792C64.5887 -0.828865 54.4762 -0.828865 48.2405 5.34792C42.0076 11.522 42.0075 21.5303 48.24 27.7019L58.4222 37.6755ZM58.4222 37.6755H58.2899H58.4222ZM59.2096 73.1865V73.1784L59.7025 73.1714C65.6463 73.0867 70.4409 68.2589 70.4409 62.2983C70.4409 56.3769 65.7072 51.5805 59.8164 51.4377L59.3286 51.4259V51.4123L49.1157 51.4581L49.102 51.4582L49.0882 51.4575C45.484 51.2747 42.6032 48.3191 42.603 44.6646C42.603 44.6645 42.603 44.6644 42.603 44.6642H43.103L59.2096 73.1865ZM59.2096 73.1865H17.1429H17.0752L17.0099 73.2045C16.3058 73.3988 15.5543 73.2494 15.0277 72.7268L15.0273 72.7264L6.07283 63.858C6.07268 63.8578 6.07253 63.8577 6.07238 63.8575C6.06492 63.8499 6.05194 63.8342 6.02327 63.7852C6.01606 63.7729 6.00871 63.76 5.99981 63.7444L5.9987 63.7424C5.99049 63.728 5.98082 63.711 5.97079 63.6938C5.94972 63.6577 5.92304 63.6136 5.8906 63.5674L5.85744 63.5201L5.8144 63.4817C5.70229 63.3816 5.58374 63.2935 5.48579 63.2207C5.47304 63.2112 5.46064 63.202 5.44865 63.193C5.33725 63.1099 5.25046 63.0423 5.17475 62.9675C-1.05769 56.7958 -1.05766 46.7875 5.17528 40.6135C11.411 34.4367 21.5235 34.4367 27.7592 40.6135L27.7593 40.6135C33.9921 46.7851 33.9923 56.7935 27.7595 62.9677C27.6838 63.0424 27.5971 63.11 27.4858 63.193C27.4738 63.202 27.4614 63.2112 27.4487 63.2206C27.3508 63.2935 27.2322 63.3816 27.1201 63.4817L27.077 63.5201L27.0439 63.5674C27.0114 63.6136 26.9848 63.6577 26.9637 63.6938C26.9596 63.7009 26.9555 63.7079 26.9516 63.7147C26.9456 63.7253 26.9398 63.7354 26.9347 63.7444C26.9258 63.76 26.9184 63.7729 26.9112 63.7852C26.8827 63.8339 26.8697 63.8497 26.8622 63.8574C26.862 63.8576 26.8618 63.8578 26.8616 63.858L22.4068 68.2698L21.5432 69.1251H22.7586H59.5477C63.3187 69.1251 66.3745 66.0693 66.3745 62.2983C66.3745 58.5353 63.3267 55.393 59.5477 55.393H49.4248C43.403 55.393 38.5365 50.6654 38.5365 44.6617C38.5365 38.701 43.3312 33.8733 49.275 33.7886L49.7679 33.7816V33.695H53.0741H54.2893L53.4259 32.8398L49.1381 28.5924C49.1379 28.5922 49.1377 28.592 49.1375 28.5919C49.131 28.5852 49.1183 28.5698 49.0891 28.5197C49.082 28.5076 49.075 28.4952 49.0664 28.4801L49.0652 28.478C49.0623 28.4728 49.0591 28.4673 49.0559 28.4616C49.0495 28.4505 49.0427 28.4386 49.0356 28.4265C49.0141 28.3897 48.9866 28.3446 48.9529 28.2977L48.9208 28.2529L48.8796 28.2161C48.7675 28.1161 48.649 28.0279 48.551 27.9551C48.5383 27.9456 48.5259 27.9364 48.5139 27.9275C48.4027 27.8445 48.316 27.777 48.2404 27.7024L59.2096 73.1865ZM63.6709 20.8636L63.6708 20.8638C61.3961 23.1408 57.7068 23.1408 55.4321 20.8638L55.4318 20.8634C53.1549 18.5888 53.1546 14.9019 55.432 12.6246L55.4321 12.6244C57.7068 10.3474 61.3961 10.3474 63.6708 12.6244L63.6711 12.6248C65.948 14.8994 65.9483 18.5862 63.6709 20.8636ZM50.7953 24.5303L50.7888 24.5368L51.1456 24.8902L59.1807 32.8468L59.5325 33.1951L59.8843 32.8468L67.8636 24.9459L67.9169 24.8931C67.9268 24.8844 67.937 24.8749 67.9473 24.8648C67.9868 24.8256 68.026 24.7862 68.0648 24.7467L68.1733 24.6392L68.1714 24.6367C72.5949 20.0149 72.5204 12.7145 67.9472 8.1855L67.9471 8.1854C63.2982 3.58409 55.7668 3.58395 51.1203 8.1855L51.1202 8.1856C46.5823 12.6822 46.4738 19.9057 50.7953 24.5303ZM8.07692 60.152L8.08631 60.1591L16.1153 68.1147L16.4672 67.7596L16.8192 68.1147L24.796 60.2087L24.8477 60.1575C24.858 60.1485 24.8687 60.1385 24.8795 60.1278C24.9214 60.0863 24.9629 60.0445 25.0041 60.0025L25.1528 59.8552L25.1493 59.8518C29.5266 55.2275 29.4368 47.9619 24.8794 43.4485L24.8793 43.4484C20.2305 38.8471 12.699 38.847 8.05254 43.4485L8.05244 43.4486C3.40354 48.0552 3.40339 55.5237 8.05254 60.1279L8.07692 60.152ZM20.6487 56.2936L20.6486 56.2938C18.3739 58.5708 14.6846 58.5708 12.4099 56.2938L12.4096 56.2935C10.1327 54.0189 10.1324 50.332 12.4097 48.0547C14.6845 45.7799 18.374 45.7799 20.6487 48.0547L20.6489 48.0548C22.9258 50.3294 22.9261 54.0163 20.6487 56.2936Z" fill="#20A881" stroke="white"/>
</svg>
