<svg width="57" height="68" viewBox="0 0 57 68" fill="none" xmlns="http://www.w3.org/2000/svg">
<path d="M23.9906 61.5407L24.2855 58.8842H4.03812C3.65484 58.884 3.28729 58.7317 3.01627 58.4607C2.74525 58.1897 2.59293 57.8221 2.59281 57.4389V8.7405C2.59293 8.35722 2.74525 7.98967 3.01627 7.71865C3.28729 7.44763 3.65484 7.29531 4.03812 7.29519H34.5545C34.9377 7.29532 35.3053 7.44764 35.5763 7.71866C35.8473 7.98968 35.9996 8.35722 35.9998 8.7405V31.6444C36.6587 31.0892 37.4023 30.6432 38.2024 30.3233V4.76011C38.2024 3.50665 37.7045 2.30453 36.8182 1.4182C35.9318 0.53187 34.7297 0.0339355 33.4762 0.0339355H5.11631C3.86285 0.0339355 2.66073 0.53187 1.7744 1.4182C0.888071 2.30453 0.390137 3.50665 0.390137 4.76011V61.4973C0.390137 62.7508 0.888071 63.9529 1.7744 64.8392C2.66073 65.7255 3.86285 66.2235 5.11631 66.2235H25.2784C24.2665 64.8844 23.8057 63.2088 23.9906 61.5407ZM22.6031 63.301H15.9894V61.5667H22.6031V63.301Z" fill="#20A881"/>
<path d="M13.671 20.1136C13.617 20.7828 13.3692 21.4217 12.9579 21.9523C12.5466 22.4829 11.9895 22.8821 11.3549 23.1011C10.7203 23.3201 10.0357 23.3495 9.38464 23.1855C8.73362 23.0216 8.14448 22.6715 7.68927 22.1781C7.23406 21.6847 6.9325 21.0693 6.82148 20.4072C6.71047 19.7451 6.79479 19.065 7.06416 18.45C7.33352 17.8351 7.77624 17.312 8.33818 16.9447C8.90012 16.5774 9.55692 16.3818 10.2283 16.3818V14.792C9.2426 14.7919 8.27854 15.0807 7.45521 15.6226C6.63189 16.1645 5.98539 16.9358 5.59563 17.8411C5.20588 18.7464 5.08994 19.7461 5.26215 20.7166C5.43436 21.6871 5.88717 22.5858 6.56462 23.3018C7.24206 24.0177 8.11445 24.5195 9.07396 24.745C10.0335 24.9706 11.038 24.91 11.9635 24.5708C12.8889 24.2316 13.6947 23.6287 14.2813 22.8366C14.8678 22.0444 15.2094 21.0978 15.2637 20.1136H13.671Z" fill="#20A881"/>
<path d="M8.83242 18.1797L7.55225 19.3497L9.45825 21.435C9.53887 21.5232 9.63685 21.5938 9.74603 21.6423C9.85521 21.6909 9.97325 21.7164 10.0927 21.7171H10.0984C10.2169 21.7171 10.3342 21.6928 10.443 21.6457C10.5518 21.5986 10.6497 21.5298 10.7309 21.4433L14.777 17.1306L13.512 15.9438L10.1067 19.5736L8.83242 18.1797Z" fill="#20A881"/>
<path d="M13.671 33.8561C13.6171 34.5252 13.3693 35.1642 12.9579 35.6947C12.5466 36.2253 11.9896 36.6245 11.355 36.8435C10.7204 37.0625 10.0357 37.0919 9.38467 36.928C8.73365 36.764 8.14451 36.414 7.6893 35.9205C7.23409 35.4271 6.93253 34.8117 6.82151 34.1496C6.7105 33.4875 6.79482 32.8074 7.06419 32.1925C7.33355 31.5776 7.77627 31.0544 8.33821 30.6871C8.90015 30.3198 9.55695 30.1242 10.2283 30.1243V28.5344C9.24263 28.5344 8.27856 28.8231 7.45523 29.365C6.6319 29.9069 5.9854 30.6782 5.59564 31.5835C5.20588 32.4888 5.08994 33.4885 5.26215 34.459C5.43436 35.4295 5.88717 36.3283 6.56462 37.0442C7.24207 37.7602 8.11446 38.2619 9.07397 38.4875C10.0335 38.713 11.038 38.6525 11.9635 38.3133C12.889 37.9741 13.6948 37.3712 14.2813 36.579C14.8678 35.7869 15.2094 34.8402 15.2638 33.8561H13.671Z" fill="#20A881"/>
<path d="M8.83242 31.9221L7.55225 33.0921L9.45825 35.1774C9.53888 35.2656 9.63685 35.3362 9.74604 35.3847C9.85522 35.4333 9.97325 35.4588 10.0927 35.4596H10.0984C10.2169 35.4595 10.3342 35.4352 10.443 35.3882C10.5518 35.3411 10.6497 35.2722 10.7309 35.1857L14.777 30.873L13.5121 29.6863L10.1067 33.3161L8.83242 31.9221Z" fill="#20A881"/>
<path d="M5.18408 47.3215C5.18445 48.6349 5.69712 49.8963 6.61309 50.8376C7.52905 51.7788 8.77606 52.3257 10.0889 52.3618C11.4018 52.398 12.677 51.9206 13.6434 51.0311C14.6098 50.1417 15.1911 48.9104 15.2637 47.599H13.671C13.617 48.2681 13.3692 48.9071 12.9579 49.4377C12.5465 49.9682 11.9895 50.3674 11.3549 50.5864C10.7203 50.8055 10.0356 50.8348 9.3846 50.6709C8.73358 50.507 8.14444 50.1569 7.68923 49.6634C7.23402 49.17 6.93247 48.5546 6.82145 47.8925C6.71043 47.2304 6.79476 46.5503 7.06412 45.9354C7.33348 45.3205 7.77621 44.7974 8.33815 44.4301C8.90008 44.0627 9.55688 43.8671 10.2282 43.8672V42.2773C8.89088 42.2788 7.60873 42.8107 6.66309 43.7563C5.71744 44.702 5.18554 45.9841 5.18408 47.3215Z" fill="#20A881"/>
<path d="M8.83242 45.6649L7.55225 46.835L9.45825 48.9203C9.53887 49.0085 9.63685 49.0791 9.74603 49.1276C9.85522 49.1762 9.97325 49.2016 10.0927 49.2024H10.0984C10.2169 49.2024 10.3342 49.1781 10.443 49.131C10.5518 49.0839 10.6497 49.015 10.7309 48.9286L14.777 44.6159L13.512 43.4292L10.1067 47.059L8.83242 45.6649Z" fill="#20A881"/>
<path d="M29.3714 17.2273H18.8662V18.9617H29.3714V17.2273Z" fill="#20A881"/>
<path d="M26.1793 20.7095H18.8662V22.4438H26.1793V20.7095Z" fill="#20A881"/>
<path d="M26.1793 30.6831H18.8662V32.4175H26.1793V30.6831Z" fill="#20A881"/>
<path d="M29.3206 34.1653H18.8662V35.8997H29.3206V34.1653Z" fill="#20A881"/>
<path d="M56.6052 61.6607L54.566 43.3255C54.486 42.6003 54.1411 41.9302 53.5974 41.4436C53.0537 40.9571 52.3495 40.6884 51.6199 40.689H47.5681V37.8924C47.5662 36.2136 46.906 34.6026 45.7293 33.4053C44.5526 32.2079 42.9533 31.5198 41.2748 31.4887C37.6915 31.4273 34.7588 34.4222 34.7588 38.006V40.689H30.7069C29.9773 40.6884 29.2731 40.9571 28.7294 41.4437C28.1857 41.9302 27.8408 42.6004 27.7608 43.3256L25.7137 61.7317C25.6386 62.4061 25.7067 63.0888 25.9135 63.7352C26.1202 64.3815 26.461 64.977 26.9135 65.4827C27.3661 65.9884 27.9202 66.3929 28.5398 66.6699C29.1593 66.9468 29.8303 67.09 30.5089 67.09H51.7463C52.4339 67.09 53.1138 66.9449 53.7415 66.6643C54.3693 66.3837 54.9308 65.9738 55.3893 65.4614C55.8479 64.949 56.1932 64.3457 56.4027 63.6907C56.6122 63.0358 56.6812 62.3441 56.6052 61.6607L56.6052 61.6607ZM36.4931 37.8924C36.4945 36.6681 36.9761 35.4933 37.8342 34.6202C38.6924 33.7471 39.8588 33.2454 41.0828 33.2228C43.6955 33.1784 45.8337 35.3725 45.8337 37.9855V40.689H36.4931V37.8924ZM54.0971 64.3047C53.8011 64.6351 53.4387 64.8995 53.0337 65.0806C52.6287 65.2616 52.19 65.3553 51.7464 65.3556H30.5089C30.0743 65.3556 29.6445 65.2639 29.2477 65.0865C28.8508 64.9091 28.4959 64.6499 28.206 64.326C27.9161 64.0021 27.6978 63.6207 27.5654 63.2067C27.4329 62.7927 27.3893 62.3554 27.4374 61.9234L29.4845 43.5173C29.5177 43.2164 29.6609 42.9384 29.8865 42.7365C30.1121 42.5346 30.4042 42.4231 30.707 42.4234H34.7588V45.8633H36.4932V42.4234H45.8338V45.8633H47.5681V42.4234H51.62C51.9227 42.4231 52.2149 42.5346 52.4404 42.7365C52.666 42.9384 52.8092 43.2164 52.8424 43.5173L54.8817 61.8524C54.9305 62.2934 54.8858 62.7396 54.7506 63.1621C54.6155 63.5847 54.3928 63.974 54.0971 64.3047Z" fill="#20A881"/>
</svg>
