<svg width="32" height="32" viewBox="0 0 32 32" fill="none" xmlns="http://www.w3.org/2000/svg">
<path d="M6.59375 13.8913C9.11375 18.8438 13.165 22.895 18.1263 25.415L21.9762 21.5562C22.4575 21.075 23.1488 20.935 23.7525 21.1275C25.7125 21.775 27.8213 22.125 30 22.125C30.9713 22.125 31.75 22.9037 31.75 23.875V30C31.75 30.9713 30.9713 31.75 30 31.75C13.5675 31.75 0.25 18.4325 0.25 2C0.25 1.02875 1.0375 0.25 2 0.25H8.125C9.09625 0.25 9.875 1.02875 9.875 2C9.875 4.17875 10.225 6.2875 10.8725 8.2475C11.065 8.85125 10.925 9.5425 10.4437 10.0238L6.59375 13.8913Z" fill="#20A881"/>
</svg>
