<svg width="96" height="45" viewBox="0 0 96 45" fill="none" xmlns="http://www.w3.org/2000/svg">
<path d="M89.2213 8.6748C88.8303 8.11621 88.1879 7.78106 87.5176 7.78106H74.5303V2.25098C74.5303 1.10586 73.5807 0.15625 72.4356 0.15625H25.374C24.2289 0.15625 23.2793 1.10586 23.2793 2.25098V36.1018C23.2793 37.2469 24.2289 38.1965 25.374 38.1965H31.2951C32.3844 41.9949 35.9035 44.8158 40.0371 44.8158C44.1707 44.8158 47.6898 42.0229 48.7791 38.1965H71.9887C73.0779 41.9949 76.5971 44.8158 80.7307 44.8158C84.8643 44.8158 88.3834 42.0229 89.4727 38.1965H93.8018C94.9469 38.1965 95.8965 37.2469 95.8965 36.1018V18.8691C95.8965 18.4223 95.7568 18.0033 95.5055 17.6682L89.2213 8.6748ZM91.735 19.4836H82.3506V11.9984H86.4562L91.735 19.4836ZM27.4688 4.37363H70.3408V34.035H48.9746C48.1647 29.8176 44.4779 26.6336 40.0371 26.6336C35.5963 26.6336 31.8816 29.8176 31.0996 34.035H27.4688V4.37363ZM40.0371 40.6264C37.3279 40.6264 35.1215 38.4199 35.1215 35.7107C35.1215 33.0016 37.3279 30.7951 40.0371 30.7951C42.7463 30.7951 44.9527 33.0016 44.9527 35.7107C44.9527 38.4199 42.7463 40.6264 40.0371 40.6264ZM80.7586 40.6264C78.0494 40.6264 75.843 38.4199 75.843 35.7107C75.843 33.0016 78.0494 30.7951 80.7586 30.7951C83.4678 30.7951 85.6742 33.0016 85.6742 35.7107C85.6742 38.4199 83.4678 40.6264 80.7586 40.6264ZM89.6961 34.035C88.8861 29.8176 85.1994 26.6336 80.7586 26.6336C78.3566 26.6336 76.1502 27.5832 74.5303 29.1193V11.9984H78.1332V21.5783C78.1332 22.7234 79.0828 23.673 80.2279 23.673H91.7629V34.035H89.6961Z" fill="#20A881"/>
<path d="M3.14209 4.37366H18.0845C19.2296 4.37366 20.1792 3.42405 20.1792 2.27893C20.1792 1.13381 19.2296 0.184204 18.0845 0.184204H3.14209C1.99697 0.184204 1.04736 1.13381 1.04736 2.27893C1.04736 3.42405 1.99697 4.37366 3.14209 4.37366Z" fill="#20A881"/>
<path d="M18.0847 7.80896H6.57764C5.43252 7.80896 4.48291 8.75857 4.48291 9.90369C4.48291 11.0488 5.43252 11.9984 6.57764 11.9984H18.0847C19.2298 11.9984 20.1794 11.0488 20.1794 9.90369C20.1794 8.75857 19.2577 7.80896 18.0847 7.80896Z" fill="#20A881"/>
<path d="M18.0845 15.4338H10.8228C9.67764 15.4338 8.72803 16.3834 8.72803 17.5286C8.72803 18.6737 9.67764 19.6233 10.8228 19.6233H18.0845C19.2296 19.6233 20.1792 18.6737 20.1792 17.5286C20.1792 16.3834 19.2575 15.4338 18.0845 15.4338Z" fill="#20A881"/>
<path d="M18.0845 23.0586H15.5708C14.4257 23.0586 13.4761 24.0082 13.4761 25.1533C13.4761 26.2984 14.4257 27.248 15.5708 27.248H18.0845C19.2296 27.248 20.1792 26.2984 20.1792 25.1533C20.1792 24.0082 19.2575 23.0586 18.0845 23.0586Z" fill="#20A881"/>
</svg>
