<svg width="70" height="74" viewBox="0 0 70 74" fill="none" xmlns="http://www.w3.org/2000/svg">
<path d="M45.4062 19.6562C45.4062 26.2005 41.7756 34.0862 36.3875 38.4106C36.295 38.48 36.2025 38.5494 36.11 38.6188C33.705 40.4919 30.9763 41.625 28.0625 41.625C25.1487 41.625 22.42 40.4919 20.015 38.6188C19.9225 38.5493 19.83 38.48 19.7375 38.4106C14.3494 34.0862 10.7188 26.2005 10.7188 19.6562C10.7188 10.0825 18.4887 2.3125 28.0625 2.3125C37.6363 2.3125 45.4062 10.0825 45.4062 19.6562Z" stroke="#20A881" stroke-width="4" stroke-miterlimit="10" stroke-linecap="round" stroke-linejoin="round"/>
<path d="M52.3438 71.6876H2.625V62.4376C2.625 51.2913 9.77069 41.8331 19.7375 38.4107C19.83 38.4801 19.9225 38.5494 20.015 38.6189C22.42 40.492 25.1487 41.6251 28.0625 41.6251C30.9763 41.6251 33.705 40.492 36.11 38.6188C36.2025 38.5494 36.295 38.4801 36.3875 38.4106C39.625 39.5206 42.5619 41.2781 45.0593 43.4982C40.4343 46.065 37.3125 50.9907 37.3125 56.6563C37.3125 64.9581 44.0418 71.6876 52.3438 71.6876Z" stroke="#20A881" stroke-width="4" stroke-miterlimit="10" stroke-linecap="round" stroke-linejoin="round"/>
<path d="M53.5 71.6411V71.6874H52.3438C52.7368 71.6874 53.1069 71.6643 53.5 71.6411Z" stroke="#20A881" stroke-width="4" stroke-miterlimit="10" stroke-linecap="round" stroke-linejoin="round"/>
<path d="M67.375 56.6562C67.375 64.565 61.27 71.0631 53.5 71.6412C53.1069 71.6644 52.7368 71.6875 52.3438 71.6875C44.0418 71.6875 37.3125 64.9581 37.3125 56.6562C37.3125 50.9906 40.4343 46.065 45.0593 43.4981C47.2101 42.3187 49.6843 41.625 52.3438 41.625C60.6457 41.625 67.375 48.3543 67.375 56.6562Z" stroke="#20A881" stroke-width="4" stroke-miterlimit="10" stroke-linecap="round" stroke-linejoin="round"/>
<path d="M46.5625 57.8125L51.1875 62.4375L58.125 53.1875" stroke="#20A881" stroke-width="4" stroke-miterlimit="10" stroke-linecap="round" stroke-linejoin="round"/>
</svg>
